<svg width="328.2" height="211.87079073799367" viewBox="0 -5 350 225.94386580834183" class="css-1j8o68f">
  <defs id="SvgjsDefs2098"></defs>
  <g id="SvgjsG2099" featurekey="symbolFeature-0" transform="matrix(4.36001443862915,0,0,4.36001443862915,87.55994221521033,-26.800072230987098)" fill="#e83855" style="--darkreader-inline-fill: #a5132b;" data-darkreader-inline-fill="">
    <g xmlns="http://www.w3.org/2000/svg" stroke="none" stroke-width="1" fill="none" fill-rule="evenodd" sketch:type="MSPage" xmlns:sketch="http://www.bohemiancoding.com/sketch/ns" style="--darkreader-inline-stroke: none;" data-darkreader-inline-stroke="">
      <path d="M30.8900146,29.4554448 C30.8900143,31.3884412 28.4275805,32.9554443 25.3900146,32.9554443 C22.3524485,32.9554443 19.8900146,31.388441 19.8900146,29.4554443 C19.8900146,27.5224477 22.3524485,25.9554443 25.3900146,25.9554443 C26.7196438,25.9554443 27.9390741,26.2556919 28.8900146,26.7554566 L28.8900146,9.45544434 C28.8900146,8.47522494 30.1538525,8.08022812 30.7120397,8.88599303 C31.4656161,9.97380982 32.321561,10.9313755 33.4423641,11.8569157 C35.1099854,13.234009 36.1099854,15.3916777 36.1099854,19.5091553 C36.1099854,20.06144 35.6622701,20.5091553 35.1099854,20.5091553 C34.5577006,20.5091553 34.1099854,20.06144 34.1099854,19.5091553 C34.1099854,16.7911465 33.6030273,14.9251711 32.1331962,13.3688943 C31.719664,12.9310409 30.8900146,12.2764435 30.8900146,12.2764435 L30.8900146,29.4554443 L30.8900146,29.4554448 Z M27.3432237,7.53254114 C24.9577675,5.93302922 22.0878441,5 19,5 C10.7157288,5 4,11.7157288 4,20 C4,28.2842712 10.7157288,35 19,35 C20.5005228,35 21.9495852,34.779672 23.3166004,34.3696028 C22.1008462,34.189607 20.9595336,33.7641453 20.0573304,32.9576225 C19.708591,32.9856929 19.3559663,33 19,33 C11.8202983,33 6,27.1797017 6,20 C6,12.8202983 11.8202983,7 19,7 C22.1757144,7 25.0854675,8.1387157 27.3432239,10.0301117 L27.3432237,7.53254114 L27.3432237,7.53254114 Z M14,20 C14,17.2385763 16.2385763,15 19,15 C21.7614237,15 24,17.2385763 24,20 C24,22.7614237 21.7614237,25 19,25 C16.2385763,25 14,22.7614237 14,20 Z M15,20 C15,17.790861 16.790861,16 19,16 C21.209139,16 23,17.790861 23,20 C23,22.209139 21.209139,24 19,24 C16.790861,24 15,22.209139 15,20 Z M19,22 C20.1045695,22 21,21.1045695 21,20 C21,18.8954305 20.1045695,18 19,18 C17.8954305,18 17,18.8954305 17,20 C17,21.1045695 17.8954305,22 19,22 Z" fill="#e83855" sketch:type="MSShapeGroup" style="--darkreader-inline-fill: #a5132b;" data-darkreader-inline-fill=""></path>
    </g>
  </g>
  <g id="SvgjsG2100" featurekey="nameFeature-0" transform="matrix(2.4139175415039062,0,0,2.4139175415039062,-4.8285430433172,123.23498687939568)" fill="#808080" style="--darkreader-inline-fill: #60686c;" data-darkreader-inline-fill="">
    <path d="M14.414 24.274 c-0.48604 0.37223 -1.0016 0.70592 -1.5833 1.1122 c0.6748 0.46136 1.2954 0.86888 1.8976 1.301 c1.3258 0.95104 2.0297 2.2841 2.0812 3.8808 c0.10531 3.2587 -1.1649 5.9104 -3.7626 7.898 c-0.30258 0.23129 -0.66428 0.41884 -1.028 0.53064 c-2.436 0.75016 -4.9356 0.992 -7.4744 0.86076 c-0.28801 -0.015 -0.5776 -0.077772 -0.85752 -0.1523 c-0.78256 -0.20902 -1.0045 -0.45608 -1.0791 -1.2792 c-0.55128 -6.0984 -0.90936 -12.199 -0.25602 -18.316 c0.20942 -1.9617 0.30988 -3.9347 0.46544 -5.902 c0.035664 -0.45164 0.097228 -0.90084 0.1418 -1.3517 c0.037266 -0.38195 0.24383 -0.55532 0.62456 -0.60676 c2.9763 -0.4006 5.9216 -0.21344 8.6704 0.99444 c1.8309 0.80444 2.8629 2.466 3.3429 4.4068 c0.3459 1.3987 0.30254 2.8289 0.1782 4.2512 c-0.086288 0.98792 -0.58048 1.7762 -1.3614 2.3728 z M7.3496 27.570999999999998 c0.052264 2.8455 0.04414 5.704 0.5756 8.6688 c0.67604 -0.21914 1.2901 -0.32648 1.8134 -0.60432 c2.201 -1.1678 2.6681 -3.0274 2.3185 -5.048 c-0.30988 -1.7928 -2.1828 -3.7516 -4.7076 -3.0164 z M7.2188 15.832999999999998 l0 6.8013 c2.5567 0.4654 4.752 -2.0553 3.9132 -4.432 c-0.093556 -0.26531 -0.2491 -0.546 -0.45648 -0.72744 c-0.80484 -0.7048 -1.6806 -1.3108 -2.7313 -1.5976 c-0.19688 -0.053868 -0.416 -0.02793 -0.72548 -0.04414 z M26.734 16.444 c-0.34836 0.0076952 -0.6988 0.00078124 -1.0143 0.00078124 c-0.34836 1.1548 -0.4476 6.376 -0.16648 7.8692 l3.5556 0 c0.32406 0 0.64812 -0.0073048 0.97176 0.0016016 c0.90572 0.025508 1.2237 0.35199 1.2083 1.2484 c-0.0076952 0.45204 -0.051056 0.90324 -0.049844 1.3553 c0.0028516 0.95996 -0.22113 1.2249 -1.169 1.267 c-1.1321 0.050236 -2.265 0.078984 -3.398 0.11262 c-0.28758 0.0085156 -0.57596 0.0012109 -0.93852 0.0012109 l0 7.6058 c0.26328 0 0.53916 0.0012109 0.81456 0 c1.909 -0.0089064 3.8184 -0.0085156 5.7272 -0.033633 c0.61284 -0.008086 0.98508 0.25558 1.1442 0.83036 c0.12922 0.46664 0.28516 0.93284 0.34793 1.41 c0.10328 0.7842 -0.30137 1.3164 -1.0864 1.4529 c-0.41152 0.07168 -0.83804 0.067228 -1.2581 0.078164 c-2.8811 0.07332 -5.7624 0.13488 -8.6428 0.21426 c-1.2788 0.035234 -1.6579 -0.21387 -1.7571 -1.4918 c-0.079804 -1.028 -0.011367 -2.0694 0.018203 -3.104 c0.10816 -3.7544 0.28558 -7.508 0.31637 -11.263 c0.013359 -1.6437 -0.2325 -3.2931 -0.4176 -4.934 c-0.20457 -1.8142 -0.1827 -3.6179 0.052656 -5.4244 c0.1527 -1.1722 0.58772 -1.5477 1.7822 -1.5696 c2.8808 -0.052656 5.7612 -0.1134 8.6412 -0.18226 c1.7867 -0.042928 1.7863 -0.052228 1.8045 1.6899 c0.0048436 0.48604 0.0032422 0.97212 0.015781 1.4578 c0.01457 0.57196 -0.28438 0.92596 -0.8 1.0746 c-0.401 0.11586 -0.82348 0.19891 -1.2394 0.21512 c-1.4866 0.05832 -2.9747 0.083436 -4.4624 0.11746 z M47.571999999999996 34.0848 c-0.034414 -0.15109 -0.086288 -0.29836 -0.14059 -0.48428 c-1.6178 -0.067656 -3.1918 -0.12965 -4.8304 0.29039 c-0.11219 0.58932 -0.22316 1.184 -0.33859 1.7782 c-0.20942 1.0791 -0.39371 2.1642 -0.64 3.2352 c-0.28476 1.237 -0.69264 1.536 -1.9641 1.5659 c-1.8175 0.042928 -1.9758 -0.053088 -1.8061 -1.8997 c0.16242 -1.768 0.47428 -3.524 0.76148 -5.2784 c0.61608 -3.7666 1.2354 -7.5332 1.9022 -11.291 c0.25965 -1.4623 0.63956 -2.9034 0.98628 -4.3492 c0.32406 -1.3509 0.69592 -2.6908 1.0082 -4.0444 c0.1693 -0.73476 0.48524 -1.218 1.3196 -1.2646 c1.0296 -0.057108 2.0544 -0.24141 3.0833 -0.26004 c1.0803 -0.019453 1.3934 0.35359 1.5923 1.4144 c0.42896 2.2865 0.947 4.5576 1.3306 6.8516 c0.5598 3.3494 1.0208 6.7152 1.5481 10.07 c0.4018 2.5559 0.84372 5.1056 1.2617 7.6592 c0.072928 0.44676 0.14059 0.8972 0.16609 1.348 c0.033203 0.58208 -0.13652 0.7688 -0.69756 0.81616 c-0.41884 0.035625 -0.83968 0.049804 -1.2601 0.063984 c-1.2002 0.0409 -1.9612 -0.51364 -2.2428 -1.6834 c-0.36293 -1.5088 -0.69304 -3.0254 -1.0398 -4.5384 z M46.894 29.427 c-0.36578 -3.2988 -0.72388 -6.4692 -1.406 -9.616 c-0.63592 3.4312 -1.6712 6.766 -2.2209 10.305 c1.2905 -0.24504 2.4453 -0.46456 3.6269 -0.689 z M69.24 16.892 c-1.0321 0.067228 -2.0658 0.090428 -3.255 0.13902 c0 1.8896 -0.0097264 3.6661 0.0020312 5.4432 c0.035234 5.3408 0.078592 10.681 0.1191 16.022 c0.0016016 0.19442 0.01293 0.38926 0.00039062 0.58248 c-0.063984 0.9604 -0.4832 1.3436 -1.4286 1.2759 c-0.58004 -0.04172 -1.1609 -0.10449 -1.7353 -0.19524 c-0.48528 -0.076952 -0.82956 -0.30703 -0.84256 -0.88384 c-0.018633 -0.83848 -0.11016 -1.6753 -0.1223 -2.5134 c-0.079804 -5.566 -0.15109 -11.132 -0.21387 -16.698 c-0.009336 -0.84092 0.046172 -1.6826 0.056288 -2.5239 c0.0028516 -0.2175 -0.053048 -0.43584 -0.093164 -0.74044 c-1.1479 -0.093984 -2.2683 -0.20133 -3.3908 -0.27383 c-1.1771 -0.075744 -1.4201 -0.2475 -1.5104 -1.4222 c-0.054296 -0.70316 -0.022695 -1.425 0.072072 -2.1245 c0.10816 -0.8008 0.50392 -1.1224 1.31 -1.1516 c0.58044 -0.021055 1.1637 0.031602 1.7458 0.053868 c2.3275 0.089924 4.6556 0.16363 6.982 0.27988 c0.90004 0.04496 1.811 0.11504 2.6884 0.30543 c0.9604 0.20859 1.1483 0.52696 1.1439 1.5023 c-0.0024219 0.54844 -0.0097264 1.1046 -0.10004 1.6425 c-0.15473 0.91988 -0.49864 1.2192 -1.4278 1.2796 z M87.17399999999999 24.274 c-0.48604 0.37223 -1.0016 0.70592 -1.5833 1.1122 c0.6748 0.46136 1.2954 0.86888 1.8976 1.301 c1.3258 0.95104 2.0297 2.2841 2.0812 3.8808 c0.10531 3.2587 -1.1649 5.9104 -3.7626 7.898 c-0.30258 0.23129 -0.66428 0.41884 -1.028 0.53064 c-2.436 0.75016 -4.9356 0.992 -7.4744 0.86076 c-0.28801 -0.015 -0.5776 -0.077772 -0.85752 -0.1523 c-0.78256 -0.20902 -1.0045 -0.45608 -1.0791 -1.2792 c-0.55128 -6.0984 -0.90936 -12.199 -0.25602 -18.316 c0.20942 -1.9617 0.30988 -3.9347 0.46544 -5.902 c0.035664 -0.45164 0.097228 -0.90084 0.1418 -1.3517 c0.037266 -0.38195 0.24383 -0.55532 0.62456 -0.60676 c2.9763 -0.4006 5.9216 -0.21344 8.6704 0.99444 c1.8309 0.80444 2.8629 2.466 3.3429 4.4068 c0.3459 1.3987 0.30254 2.8289 0.1782 4.2512 c-0.086288 0.98792 -0.58048 1.7762 -1.3614 2.3728 z M80.10959999999999 27.570999999999998 c0.052264 2.8455 0.04414 5.704 0.5756 8.6688 c0.67604 -0.21914 1.2901 -0.32648 1.8134 -0.60432 c2.201 -1.1678 2.6681 -3.0274 2.3185 -5.048 c-0.30988 -1.7928 -2.1828 -3.7516 -4.7076 -3.0164 z M79.97879999999999 15.832999999999998 l0 6.8013 c2.5567 0.4654 4.752 -2.0553 3.9132 -4.432 c-0.093556 -0.26531 -0.2491 -0.546 -0.45648 -0.72744 c-0.80484 -0.7048 -1.6806 -1.3108 -2.7313 -1.5976 c-0.19688 -0.053868 -0.416 -0.02793 -0.72548 -0.04414 z M97.50479999999999 31.334 c-0.0073048 1.5817 0.07582 3.1639 0.11957 4.7884 c0.8652 0 1.6048 -0.0064844 2.344 0.0016016 c0.93768 0.010117 1.8786 -0.010938 2.8119 0.061172 c1.0106 0.078164 1.2962 0.43868 1.2974 1.4282 c0.0020312 1.4144 -0.37711 1.8576 -1.811 1.954 c-2.2642 0.1523 -4.5308 0.19726 -6.79 -0.10125 c-0.28758 -0.038086 -0.57476 -0.096836 -0.85388 -0.17582 c-0.81376 -0.23047 -1.0864 -0.52172 -1.0612 -1.3849 c0.040116 -1.3906 0.19484 -2.7774 0.23942 -4.168 c0.07168 -2.2318 0.10691 -4.4652 0.13121 -6.6984 c0.017812 -1.6502 -0.016602 -3.3008 -0.0089064 -4.9512 c0.011758 -2.4943 0.034024 -4.9892 0.064804 -7.4836 c0.0068752 -0.54924 0.061952 -1.0985 0.1057 -1.647 c0.031172 -0.38926 0.2268 -0.689 0.59944 -0.80928 c0.80244 -0.25883 1.621 -0.2734 2.336 0.20254 c0.28598 0.19039 0.48688 0.58208 0.6084 0.92432 c0.11504 0.32402 0.10207 0.70316 0.09922 1.0576 c-0.026328 3.3684 -0.052656 6.7368 -0.098828 10.105 c-0.031602 2.2991 -0.12191 4.5976 -0.13324 6.8964 z M108.08629999999998 25.93 c0.063592 -0.00082032 0.12676 -0.0016406 0.19035 -0.0024609 c-0.060744 -2.0054 -0.15551 -4.0108 -0.17254 -6.0168 c-0.016602 -1.9414 0.030391 -3.8841 0.082656 -5.8256 c0.025117 -0.93408 0.13527 -1.0321 1.0511 -1.201 c0.47716 -0.087892 0.9608 -0.14664 1.4444 -0.18957 c1.0333 -0.091524 1.3156 0.091952 1.3877 1.1143 c0.097616 1.3861 0.1057 2.7787 0.13973 4.1692 c0.072108 2.9435 0.13207 5.8872 0.20418 8.8304 c0.08426 3.4296 0.20215 6.8588 0.25398 10.289 c0.023906 1.5785 -1.0888 2.5182 -2.6531 2.2185 c-1.907 -0.36535 -1.9082 -0.31715 -1.9212 -2.2233 c-0.025508 -3.7208 -0.0072656 -7.442 -0.0072656 -11.163 z M129.11999999999998 16.892 c-1.0321 0.067228 -2.0658 0.090428 -3.255 0.13902 c0 1.8896 -0.0097264 3.6661 0.0020312 5.4432 c0.035234 5.3408 0.078592 10.681 0.1191 16.022 c0.0016016 0.19442 0.01293 0.38926 0.00039062 0.58248 c-0.063984 0.9604 -0.4832 1.3436 -1.4286 1.2759 c-0.58004 -0.04172 -1.1609 -0.10449 -1.7353 -0.19524 c-0.48528 -0.076952 -0.82956 -0.30703 -0.84256 -0.88384 c-0.018633 -0.83848 -0.11016 -1.6753 -0.1223 -2.5134 c-0.079804 -5.566 -0.15109 -11.132 -0.21387 -16.698 c-0.009336 -0.84092 0.046172 -1.6826 0.056288 -2.5239 c0.0028516 -0.2175 -0.053048 -0.43584 -0.093164 -0.74044 c-1.1479 -0.093984 -2.2683 -0.20133 -3.3908 -0.27383 c-1.1771 -0.075744 -1.4201 -0.2475 -1.5104 -1.4222 c-0.054296 -0.70316 -0.022695 -1.425 0.072072 -2.1245 c0.10816 -0.8008 0.50392 -1.1224 1.31 -1.1516 c0.58044 -0.021055 1.1637 0.031602 1.7458 0.053868 c2.3275 0.089924 4.6556 0.16363 6.982 0.27988 c0.90004 0.04496 1.811 0.11504 2.6884 0.30543 c0.9604 0.20859 1.1483 0.52696 1.1439 1.5023 c-0.0024219 0.54844 -0.0097264 1.1046 -0.10004 1.6425 c-0.15473 0.91988 -0.49864 1.2192 -1.4278 1.2796 z M139.7736 34.6244 c-0.085076 0.20535 -0.14398 0.4214 -0.27402 0.805 c1.7547 -0.061172 3.3664 -0.12476 4.9784 -0.17012 c0.51604 -0.01457 1.0341 0.0060936 1.5502 0.034024 c0.52452 0.028359 0.8518 0.29812 0.87528 0.84616 c0.038867 0.90532 0.068828 1.8114 0.089064 2.7175 c0.012539 0.55048 -0.37551 0.71816 -0.82472 0.76312 c-0.96604 0.096796 -1.9337 0.22558 -2.9018 0.23774 c-2.1042 0.026719 -4.2096 -0.0024609 -6.3144 -0.03 c-0.48324 -0.0064844 -0.96892 -0.076172 -1.4469 -0.1568 c-0.74652 -0.12559 -0.82512 -0.24144 -0.847 -1.0297 c-0.053476 -1.9301 0.30824 -3.7257 1.1086 -5.5348 c2.0407 -4.6136 3.8808 -9.3164 5.8048 -13.982 c0.34144 -0.82832 0.70032 -1.6498 1.0839 -2.551 c-0.36293 -0.022695 -0.61284 -0.052656 -0.8624 -0.051836 c-1.9106 0.0073048 -3.8212 0.016602 -5.732 0.034024 c-1.0624 0.0097264 -1.3128 -0.13203 -1.3918 -1.1572 c-0.071288 -0.9288 0.0073048 -1.8697 0.02957 -2.805 c0.011328 -0.47676 0.29363 -0.69064 0.74892 -0.70844 c0.22641 -0.0089064 0.45324 -0.01418 0.67964 -0.022695 c3.1704 -0.11664 6.3408 -0.22762 9.5108 -0.35359 c1.0321 -0.0409 1.1864 0.077772 1.2002 1.1167 c0.019024 1.425 0.059924 2.8508 0.020234 4.274 c-0.01418 0.50144 -0.1827 1.0195 -0.37469 1.4918 c-1.5959 3.9258 -3.2096 7.844 -4.8268 11.761 c-0.61732 1.495 -1.2581 2.9804 -1.8835 4.472 z"></path>
  </g>
</svg>